<?xml version="1.0" encoding="UTF-8" standalone="no"?>
<!-- Created with Inkscape (http://www.inkscape.org/) -->

<svg
   xmlns:dc="http://purl.org/dc/elements/1.1/"
   xmlns:cc="http://creativecommons.org/ns#"
   xmlns:rdf="http://www.w3.org/1999/02/22-rdf-syntax-ns#"
   xmlns:svg="http://www.w3.org/2000/svg"
   xmlns="http://www.w3.org/2000/svg"
   xmlns:xlink="http://www.w3.org/1999/xlink"
   xmlns:sodipodi="http://sodipodi.sourceforge.net/DTD/sodipodi-0.dtd"
   xmlns:inkscape="http://www.inkscape.org/namespaces/inkscape"
   width="1488.189"
   height="2104.7244"
   id="svg2984"
   version="1.1"
   inkscape:version="0.48.4 r9939"
   sodipodi:docname="gnufunzt_poster_1.svg"
   inkscape:export-filename="/home/ich/gits/gnufunzt/poster/130505 gnufunzt_poster_1.png"
   inkscape:export-xdpi="90"
   inkscape:export-ydpi="90">
  <defs
     id="defs2986">
    <linearGradient
       inkscape:collect="always"
       id="linearGradient5977">
      <stop
         style="stop-color:#d7e3e7;stop-opacity:1;"
         offset="0"
         id="stop5979" />
      <stop
         style="stop-color:#d7e3e7;stop-opacity:0;"
         offset="1"
         id="stop5981" />
    </linearGradient>
    <linearGradient
       id="linearGradient3852">
      <stop
         style="stop-color:#ffffff;stop-opacity:0.18934911;"
         offset="0"
         id="stop3854" />
      <stop
         id="stop3860"
         offset="1"
         style="stop-color:#662d60;stop-opacity:0.15384616;" />
      <stop
         style="stop-color:#916a8c;stop-opacity:0;"
         offset="1"
         id="stop5829" />
      <stop
         style="stop-color:#ffffff;stop-opacity:0;"
         offset="1"
         id="stop3856" />
    </linearGradient>
    <filter
       color-interpolation-filters="sRGB"
       inkscape:collect="always"
       id="filter888"
       x="-0.097392179"
       width="1.1947844"
       y="-0.1670946"
       height="1.3341892">
      <feGaussianBlur
         inkscape:collect="always"
         stdDeviation="19.331883"
         id="feGaussianBlur890" />
    </filter>
    <filter
       color-interpolation-filters="sRGB"
       inkscape:collect="always"
       id="filter912">
      <feGaussianBlur
         inkscape:collect="always"
         stdDeviation="0.37702737"
         id="feGaussianBlur914" />
    </filter>
    <filter
       color-interpolation-filters="sRGB"
       inkscape:collect="always"
       id="filter892">
      <feGaussianBlur
         inkscape:collect="always"
         stdDeviation="0.37702737"
         id="feGaussianBlur894" />
    </filter>
    <radialGradient
       inkscape:collect="always"
       xlink:href="#linearGradient3852-5"
       id="radialGradient3858-8"
       cx="868.43549"
       cy="-580.95367"
       fx="868.43549"
       fy="-580.95367"
       r="519.95184"
       gradientTransform="matrix(1,0,0,0.79622137,-47.658194,-124.12435)"
       gradientUnits="userSpaceOnUse"
       spreadMethod="reflect" />
    <linearGradient
       id="linearGradient3852-5">
      <stop
         style="stop-color:#ffffff;stop-opacity:0.34319526;"
         offset="0"
         id="stop3854-3" />
      <stop
         id="stop3860-0"
         offset="0.5"
         style="stop-color:#ffffff;stop-opacity:0.53254437;" />
      <stop
         style="stop-color:#ffffff;stop-opacity:0;"
         offset="1"
         id="stop3856-7" />
    </linearGradient>
    <filter
       inkscape:collect="always"
       id="filter5773"
       x="-0.14849533"
       width="1.2969907"
       y="-0.62243638"
       height="2.2448728">
      <feGaussianBlur
         inkscape:collect="always"
         stdDeviation="29.512777"
         id="feGaussianBlur5775" />
    </filter>
    <radialGradient
       inkscape:collect="always"
       xlink:href="#linearGradient3852"
       id="radialGradient5827"
       gradientUnits="userSpaceOnUse"
       gradientTransform="matrix(0.72854725,0,0,0.58008489,-244.90639,946.56226)"
       spreadMethod="reflect"
       cx="868.43549"
       cy="-580.95367"
       fx="868.43549"
       fy="-580.95367"
       r="519.95184" />
    <linearGradient
       inkscape:collect="always"
       xlink:href="#linearGradient5977"
       id="linearGradient5983"
       x1="1439"
       y1="-1046.3307"
       x2="744"
       y2="483.84836"
       gradientUnits="userSpaceOnUse" />
  </defs>
  <sodipodi:namedview
     id="base"
     pagecolor="#d7e3e7"
     bordercolor="#666666"
     borderopacity="1.0"
     inkscape:pageopacity="1"
     inkscape:pageshadow="2"
     inkscape:zoom="0.43901235"
     inkscape:cx="744.09448"
     inkscape:cy="1234.5894"
     inkscape:document-units="px"
     inkscape:current-layer="layer1"
     showgrid="false"
     borderlayer="true"
     inkscape:showpageshadow="false"
     inkscape:window-width="1920"
     inkscape:window-height="1149"
     inkscape:window-x="0"
     inkscape:window-y="22"
     inkscape:window-maximized="1"
     showguides="true"
     inkscape:guide-bbox="true">
    <sodipodi:guide
       orientation="1,0"
       position="744,230"
       id="guide3848" />
    <sodipodi:guide
       orientation="1,0"
       position="1439,854"
       id="guide5938" />
  </sodipodi:namedview>
  <metadata
     id="metadata2989">
    <rdf:RDF>
      <cc:Work
         rdf:about="">
        <dc:format>image/svg+xml</dc:format>
        <dc:type
           rdf:resource="http://purl.org/dc/dcmitype/StillImage" />
        <dc:title></dc:title>
      </cc:Work>
    </rdf:RDF>
  </metadata>
  <g
     inkscape:label="Ebene 1"
     inkscape:groupmode="layer"
     id="layer1"
     transform="translate(0,1052.3622)">
    <text
       xml:space="preserve"
       style="font-size:1735.02502441px;font-style:normal;font-variant:normal;font-weight:bold;font-stretch:normal;line-height:125%;letter-spacing:0px;word-spacing:0px;opacity:0.5;fill:#ffffff;fill-opacity:1;stroke:#959595;stroke-width:94.61483765;stroke-miterlimit:4;stroke-opacity:0.42957746;stroke-dasharray:none;font-family:Titillium Web;-inkscape-font-specification:Titillium Web Bold"
       x="-133.14488"
       y="117.42435"
       id="text5658-5"
       sodipodi:linespacing="125%"
       transform="matrix(0.99236329,-0.09628073,0.10636772,0.9973755,0,0)"><tspan
         sodipodi:role="line"
         id="tspan5660-0"
         x="-133.14488"
         y="117.42435"
         style="fill:#ffffff;fill-opacity:1;stroke:#959595;stroke-width:94.61483765;stroke-miterlimit:4;stroke-opacity:0.42957746;stroke-dasharray:none">G!</tspan></text>
    <path
       id="path4002"
       style="fill:#95d5e7;fill-opacity:1;stroke:none;opacity:1"
       d="M -67.03527,2762.722 743.73221,824.9336 -540.824,2487.2218 z M 1010.4807,2908.491 743.73221,824.9336 462.41758,2906.7953 z M 2016.5219,2495.9733 743.73221,824.9336 1541.0373,2768.5362 z m 664.998,-860.272 L 743.73221,824.9336 2406.0195,2109.4901 z M 3657.531,414.00865 743.73221,824.9336 2825.5932,1106.2489 z M 2414.7711,-447.85628 743.73221,824.9336 2687.3336,27.62843 z M 1554.4993,-1112.8545 743.73221,824.9336 2028.2876,-837.354 z M 476.98328,-1258.6238 743.73221,824.9336 1025.0466,-1256.9278 z M -529.05772,-846.1055 743.73221,824.9336 -53.57285,-1118.6685 z M -1194.0557,14.16613 743.73221,824.9336 -918.5554,-459.62265 z M -1339.8252,1091.6827 743.73221,824.9336 -2075.2452,408.98149 z M -927.307,2097.7241 743.73221,824.9336 -1199.87,1622.2394 z m 0,0 L 743.73221,824.9336 -1199.87,1622.2394 z"
       inkscape:connector-curvature="0"
       sodipodi:nodetypes="cccccccccccccccccccccccccccccccccccccccccccccccccccc" />
    <rect
       style="fill:url(#linearGradient5983);fill-opacity:1;stroke:none"
       id="rect5975"
       width="1549.978"
       height="1928.9873"
       x="-28.284323"
       y="-1074.615"
       ry="0" />
    <g
       id="g924"
       transform="translate(218.15951,-1414.2385)">
      <text
         transform="matrix(1.8012958,0,0,1.5245144,-422.58434,-357.64545)"
         sodipodi:linespacing="73.000002%"
         id="text916"
         y="676.0058"
         x="530.0332"
         style="font-size:193.63052368px;font-style:normal;font-variant:normal;font-weight:bold;font-stretch:normal;text-align:center;line-height:73.00000191%;writing-mode:lr-tb;text-anchor:middle;opacity:0.15;fill:#000000;fill-opacity:1;fill-rule:nonzero;stroke:#000000;stroke-width:4.27642155;stroke-miterlimit:4;stroke-opacity:1;stroke-dasharray:none;filter:url(#filter888);font-family:Titillium Web;-inkscape-font-specification:Titillium Web Bold"
         xml:space="preserve"><tspan
           y="676.0058"
           x="530.0332"
           id="tspan918"
           sodipodi:role="line"
           style="stroke-width:4.27642155">GNU</tspan><tspan
           id="tspan920"
           y="817.35608"
           x="530.0332"
           sodipodi:role="line"
           style="stroke-width:4.27642155">funzt!</tspan></text>
      <text
         transform="matrix(1.8012958,0,0,1.5245144,-422.58434,-357.64545)"
         xml:space="preserve"
         style="font-size:193.63052368px;font-style:normal;font-variant:normal;font-weight:bold;font-stretch:normal;text-align:center;line-height:73.00000191%;writing-mode:lr-tb;text-anchor:middle;opacity:0.28800001;fill:#000000;fill-opacity:1;fill-rule:nonzero;stroke:#000000;stroke-width:4.27642155;stroke-miterlimit:4;stroke-opacity:1;stroke-dasharray:none;filter:url(#filter912);font-family:Titillium Web;-inkscape-font-specification:Titillium Web Bold"
         x="530.0332"
         y="676.0058"
         id="text902"
         sodipodi:linespacing="73.000002%"><tspan
           sodipodi:role="line"
           id="tspan904"
           x="530.0332"
           y="676.0058"
           style="stroke-width:4.27642155">GNU</tspan><tspan
           sodipodi:role="line"
           x="530.0332"
           y="817.35608"
           id="tspan906"
           style="stroke-width:4.27642155">funzt!</tspan></text>
      <text
         transform="scale(1.086993,0.91996912)"
         sodipodi:linespacing="73.000002%"
         id="text810"
         y="730.59479"
         x="488.69186"
         style="font-size:320.8722229px;font-style:normal;font-variant:normal;font-weight:bold;font-stretch:normal;text-align:center;line-height:73.00000191%;writing-mode:lr-tb;text-anchor:middle;fill:#bf8dc5;fill-opacity:1;fill-rule:nonzero;stroke:#662d60;stroke-width:7.08661413;stroke-miterlimit:4;stroke-opacity:1;stroke-dasharray:none;font-family:Titillium Web;-inkscape-font-specification:Titillium Web Bold"
         xml:space="preserve"><tspan
           y="730.59479"
           x="488.69186"
           id="tspan812"
           sodipodi:role="line"
           style="stroke-width:7.08661413">GNU</tspan><tspan
           id="tspan814"
           y="964.83154"
           x="488.69186"
           sodipodi:role="line"
           style="stroke-width:7.08661413">funzt!</tspan></text>
      <text
         transform="matrix(1.8012958,0,0,1.5245144,-422.58434,-357.64545)"
         sodipodi:linespacing="73.000002%"
         id="text830"
         y="675.86688"
         x="529.89429"
         style="font-size:193.63052368px;font-style:normal;font-variant:normal;font-weight:bold;font-stretch:normal;text-align:center;line-height:73.00000191%;writing-mode:lr-tb;text-anchor:middle;opacity:0.597;fill:none;stroke:#000000;stroke-width:1.28292644;stroke-miterlimit:4;stroke-opacity:1;stroke-dasharray:3.84877936, 3.84877936;stroke-dashoffset:0;filter:url(#filter892);font-family:Titillium Web;-inkscape-font-specification:Titillium Web Bold"
         xml:space="preserve"><tspan
           y="675.86688"
           x="529.89429"
           id="tspan832"
           sodipodi:role="line"
           style="stroke-width:1.28292644;stroke-miterlimit:4;stroke-dasharray:3.84877936, 3.84877936;stroke-dashoffset:0">GNU</tspan><tspan
           id="tspan834"
           y="817.21716"
           x="529.89429"
           sodipodi:role="line"
           style="stroke-width:1.28292644;stroke-miterlimit:4;stroke-dasharray:3.84877936, 3.84877936;stroke-dashoffset:0">funzt!</tspan></text>
      <text
         transform="scale(1.086993,0.91996912)"
         xml:space="preserve"
         style="font-size:320.8722229px;font-style:normal;font-variant:normal;font-weight:bold;font-stretch:normal;text-align:center;line-height:73.00000191%;writing-mode:lr-tb;text-anchor:middle;fill:none;stroke:#d7e3e7;stroke-width:2.12598419;stroke-miterlimit:4;stroke-opacity:1;stroke-dasharray:6.37795272, 6.37795272;stroke-dashoffset:0;font-family:Titillium Web;-inkscape-font-specification:Titillium Web Bold"
         x="488.69186"
         y="730.59479"
         id="text816"
         sodipodi:linespacing="73.000002%"><tspan
           sodipodi:role="line"
           id="tspan818"
           x="488.69186"
           y="730.59479"
           style="stroke:#d7e3e7;stroke-width:2.12598419;stroke-miterlimit:4;stroke-opacity:1;stroke-dasharray:6.37795272, 6.37795272;stroke-dashoffset:0">GNU</tspan><tspan
           sodipodi:role="line"
           x="488.69186"
           y="964.83154"
           id="tspan820"
           style="stroke:#d7e3e7;stroke-width:2.12598419;stroke-miterlimit:4;stroke-opacity:1;stroke-dasharray:6.37795272, 6.37795272;stroke-dashoffset:0">funzt!</tspan></text>
    </g>
    <rect
       style="fill:#95d5e7;fill-opacity:1;stroke:none;opacity:1"
       id="rect3078"
       width="1532.8571"
       height="253.14282"
       x="-19.622801"
       y="818.93518" />
    <rect
       style="fill:#55bcd9;fill-opacity:1;stroke:none"
       id="rect3078-4"
       width="1532.8571"
       height="253.14282"
       x="-146.94415"
       y="1030.4064"
       transform="matrix(0.99276048,-0.1201109,0.1201109,0.99276048,0,0)" />
    <rect
       style="fill:#2a9dbd;fill-opacity:1;stroke:none"
       id="rect3078-4-7"
       width="1532.8571"
       height="253.14282"
       x="-81.493042"
       y="1058.3627"
       transform="matrix(0.99276048,-0.1201109,0.1201109,0.99276048,0,0)" />
    <rect
       style="fill:#1f758d;fill-opacity:1;stroke:none"
       id="rect3078-4-7-6"
       width="1532.8571"
       height="253.14282"
       x="142.35327"
       y="1088.4644"
       transform="matrix(0.99276048,-0.1201109,0.1201109,0.99276048,0,0)" />
    <text
       xml:space="preserve"
       style="font-size:124.17729187000000479px;font-style:normal;font-variant:normal;font-weight:bold;font-stretch:normal;text-align:center;line-height:125%;letter-spacing:0px;word-spacing:0px;writing-mode:lr-tb;text-anchor:middle;fill:#ffffff;fill-opacity:0.58802819;stroke:none;stroke-width:3.23852324000000014;stroke-miterlimit:4;stroke-opacity:0.58802818999999995;stroke-dasharray:none;font-family:Titillium Web;-inkscape-font-specification:Titillium Web Bold"
       x="320.02463"
       y="-234.03838"
       id="text3899-1-2"
       sodipodi:linespacing="125%"
       transform="matrix(0.99853809,-0.00287413,0.00182069,1.0014588,0,0)"><tspan
         sodipodi:role="line"
         x="320.02463"
         y="-234.03838"
         id="tspan3903-6-6"
         style="font-size:124.17729187000000479px;font-style:normal;font-variant:normal;font-weight:bold;font-stretch:normal;text-align:center;line-height:125%;writing-mode:lr-tb;text-anchor:middle;fill:#ffffff;fill-opacity:0.58802819;stroke:none;stroke-width:3.23852324000000014;stroke-miterlimit:4;stroke-opacity:0.58802818999999995;stroke-dasharray:none;font-family:Titillium Web;-inkscape-font-specification:Titillium Web Bold">GNµ's</tspan></text>
    <text
       xml:space="preserve"
       style="font-size:124.17729187000000479px;font-style:normal;font-variant:normal;font-weight:bold;font-stretch:normal;text-align:center;line-height:125%;letter-spacing:0px;word-spacing:0px;writing-mode:lr-tb;text-anchor:middle;fill:#ffffff;fill-opacity:0.58802818999999995;stroke:none;stroke-width:3.23852324000000014;stroke-miterlimit:4;stroke-opacity:0.58802818999999995;stroke-dasharray:none;font-family:Titillium Web;-inkscape-font-specification:Titillium Web Bold"
       x="1045.6866"
       y="-359.58084"
       id="text3899-1-2-9"
       sodipodi:linespacing="125%"
       transform="matrix(0.99853809,-0.00287413,0.00182069,1.0014588,0,0)"><tspan
         sodipodi:role="line"
         x="1045.6866"
         y="-359.58084"
         id="tspan3903-6-6-7"
         style="font-size:124.17729187000000479px;font-style:normal;font-variant:normal;font-weight:bold;font-stretch:normal;text-align:center;line-height:125%;writing-mode:lr-tb;text-anchor:middle;fill:#ffffff;fill-opacity:0.58802818999999995;stroke:none;stroke-width:3.23852324000000014;stroke-miterlimit:4;stroke-opacity:0.58802818999999995;stroke-dasharray:none;font-family:Titillium Web;-inkscape-font-specification:Titillium Web Bold">Episoden</tspan></text>
    <text
       xml:space="preserve"
       style="font-size:100.37677002px;font-style:normal;font-variant:normal;font-weight:bold;font-stretch:normal;text-align:center;line-height:125%;letter-spacing:0px;word-spacing:0px;writing-mode:lr-tb;text-anchor:middle;fill:#ffffff;fill-opacity:1;stroke:#000000;stroke-width:2.61780953;stroke-miterlimit:4;stroke-opacity:1;stroke-dasharray:none;font-family:Titillium Web;-inkscape-font-specification:Titillium Web Bold"
       x="744.56537"
       y="-357.13028"
       id="text3899-1"
       sodipodi:linespacing="125%"
       transform="matrix(0.99853809,-0.00287413,0.00182069,1.0014588,0,0)"><tspan
         sodipodi:role="line"
         id="tspan3901-1"
         x="744.56537"
         y="-357.13028"
         style="font-size:100.37677002px;font-style:normal;font-variant:normal;font-weight:bold;font-stretch:normal;text-align:center;line-height:125%;writing-mode:lr-tb;text-anchor:middle;fill:#ffffff;fill-opacity:1;stroke:#000000;stroke-width:2.61780953;stroke-miterlimit:4;stroke-opacity:1;stroke-dasharray:none;font-family:Titillium Web;-inkscape-font-specification:Titillium Web Bold">monatliche <tspan
   style="fill:#525252;fill-opacity:1"
   id="tspan5680">Episoden</tspan></tspan><tspan
         sodipodi:role="line"
         x="744.56537"
         y="-231.65932"
         id="tspan3903-6"
         style="font-size:100.37677002px;font-style:normal;font-variant:normal;font-weight:bold;font-stretch:normal;text-align:center;line-height:125%;writing-mode:lr-tb;text-anchor:middle;fill:#ffffff;fill-opacity:1;stroke:#000000;stroke-width:2.61780953;stroke-miterlimit:4;stroke-opacity:1;stroke-dasharray:none;font-family:Titillium Web;-inkscape-font-specification:Titillium Web Bold"><tspan
   style="fill:#525252;fill-opacity:1;stroke:#000000;stroke-opacity:1"
   id="tspan5682">GNµ's</tspan> nach Lust und Laune</tspan></text>
    <rect
       style="fill:#ffffff;fill-opacity:0.58802819;stroke:none"
       id="rect3935-1"
       width="39.918041"
       height="76.080345"
       x="382.48145"
       y="898.82513"
       ry="0"
       transform="matrix(0.99341609,-0.11456205,0.1331908,0.99109042,0,0)" />
    <rect
       style="fill:#525252;fill-opacity:1;stroke:#000000;stroke-opacity:1;stroke-width:2.00004734;stroke-miterlimit:4;stroke-dasharray:none"
       id="rect3935"
       width="39.938057"
       height="78.884499"
       x="380.995"
       y="891.70813"
       ry="0"
       transform="matrix(0.99291822,-0.11879987,0.12845618,0.99171519,0,0)" />
    <path
       style="fill:#bf8dc5;fill-opacity:1;stroke:#ffffff;stroke-opacity:1;stroke-width:4;stroke-miterlimit:4;stroke-dasharray:none"
       d="m 331.79107,932.04253 370.25901,-21.01367 25.85928,46.53633 -406.00781,51.81261 z"
       id="rect3935-6-8"
       inkscape:connector-curvature="0"
       sodipodi:nodetypes="ccccc" />
    <path
       style="fill:#662d60;fill-opacity:1;stroke:#ffffff;stroke-width:2;stroke-miterlimit:4;stroke-opacity:1;stroke-dasharray:6,6;stroke-dashoffset:0"
       d="m 342.53367,923.2595 363.1657,-20.61109 25.36388,45.64476 -398.22964,50.82001 z"
       id="rect3935-6"
       inkscape:connector-curvature="0"
       sodipodi:nodetypes="ccccc" />
    <path
       style="fill:#ffffff;fill-opacity:1;stroke:#000000;stroke-opacity:1;stroke-width:2;stroke-miterlimit:4;stroke-dasharray:none"
       d="m 435.47511,966.71123 76.98517,-4.77775 5.52651,6.97193 -84.32839,9.61751 z"
       id="rect3935-6-8-0"
       inkscape:connector-curvature="0"
       sodipodi:nodetypes="ccccc" />
    <text
       xml:space="preserve"
       style="font-size:27.50665091999999845px;font-style:normal;font-variant:normal;font-weight:bold;font-stretch:normal;line-height:125%;letter-spacing:0px;word-spacing:0px;fill:#ffffff;fill-opacity:1;stroke:#ffffff;stroke-width:1.50000000000000000;stroke-miterlimit:4;stroke-opacity:1;stroke-dasharray:none;font-family:Titillium Web;-inkscape-font-specification:Titillium Web Bold"
       x="629.57758"
       y="1033.8464"
       id="text5658"
       sodipodi:linespacing="125%"
       transform="matrix(1.0231309,-0.078008,-0.28554887,0.99916355,0,0)"><tspan
         sodipodi:role="line"
         id="tspan5660"
         x="629.57758"
         y="1033.8464"
         style="stroke-width:1.50000000000000000;stroke-miterlimit:4;stroke-dasharray:none;fill:#ffffff;fill-opacity:1;stroke:#ffffff;stroke-opacity:1">G!</tspan></text>
    <path
       style="fill:none;stroke:#000000;stroke-width:2;stroke-opacity:1;stroke-miterlimit:4;stroke-dasharray:none"
       d="m 348.68078,958.64513 34.55378,-0.89511 9.26836,25.81666 -47.52919,5.87626 z"
       id="rect3935-6-8-0-1"
       inkscape:connector-curvature="0"
       sodipodi:nodetypes="ccccc" />
    <rect
       style="fill:none;stroke:#ffffff;stroke-width:30.00000145;stroke-linejoin:bevel;stroke-miterlimit:4;stroke-opacity:0.58802818999999995;stroke-dasharray:none;stroke-dashoffset:0"
       id="rect3850-8"
       width="713.90619"
       height="559.51959"
       x="43.11636"
       y="342.29703"
       ry="143.87648"
       rx="0"
       transform="matrix(0.99115427,-0.13271477,0.132293,0.99121065,0,0)" />
    <path
       style="fill:#662d60;fill-opacity:1;stroke:#ffffff;stroke-opacity:1;stroke-width:3;stroke-miterlimit:4;stroke-dasharray:6,6;stroke-dashoffset:0"
       d="m 149.19273,815.2272 c -4.76308,-34.57972 -6.67212,-49.62833 -6.30222,-49.67928 0.29187,-0.0402 0.37811,-0.25777 0.19165,-0.48348 -0.18646,-0.2257 0.004,-0.59916 0.42297,-0.82992 0.54445,-0.29975 0.70881,-0.19189 0.57569,0.37779 -0.10251,0.43852 0.008,0.77059 0.24475,0.73794 0.23706,-0.0327 0.65012,0.48485 0.91795,1.15 1.25861,3.12581 1.61534,0.33709 1.02851,-8.04077 -0.1715,-2.44789 -0.0265,-5.3857 0.33502,-6.79321 0.35785,-1.39275 0.4733,-3.66971 0.26339,-5.19366 -0.26615,-1.93225 -0.10651,-3.44174 0.55438,-5.24217 0.5105,-1.39069 0.84321,-3.14537 0.73936,-3.89927 -0.10384,-0.75393 0.16542,-2.32974 0.59835,-3.50182 0.43296,-1.17208 1.08209,-2.97863 1.44257,-4.01455 0.36049,-1.03592 1.06824,-2.37527 1.57282,-2.97632 1.20693,-1.4377 1.03457,-2.27539 -0.63082,-3.06586 -1.86456,-0.885 -2.33287,-4.17969 -1.08634,-7.64214 0.49437,-1.37317 1.06564,-3.26636 1.26947,-4.2071 0.20383,-0.94074 0.56297,-1.73693 0.79803,-1.76931 0.23509,-0.0323 0.68614,-0.78938 1.00235,-1.68223 0.77875,-2.19885 7.34387,-10.8743 8.95765,-11.83697 0.71361,-0.42572 1.26617,-1.00131 1.2279,-1.27912 -0.0382,-0.27778 0.71877,-0.96981 1.68232,-1.53781 0.96355,-0.56801 2.10335,-1.53226 2.53296,-2.14278 0.42955,-0.61052 1.29215,-1.18043 1.91683,-1.26649 0.62469,-0.0861 1.81893,-0.82221 2.65392,-1.63592 0.83495,-0.81372 2.30217,-1.74135 3.26051,-2.0614 3.10432,-1.03677 7.83983,-4.56687 10.12207,-7.5456 1.47715,-1.92792 2.78362,-3.08151 3.91959,-3.46088 1.10809,-0.37008 1.76768,-0.93961 1.88629,-1.62873 0.10033,-0.58282 0.68832,-1.37998 1.30667,-1.77146 0.61836,-0.3915 1.19753,-1.13715 1.28702,-1.65699 0.21492,-1.24866 3.34117,-4.48225 4.51765,-4.67274 0.50989,-0.0825 1.78031,-0.62745 2.82322,-1.21088 1.04291,-0.58343 3.30001,-1.65926 5.0158,-2.39075 1.9681,-0.83906 3.24545,-1.70103 3.46055,-2.33521 0.60899,-1.79545 0.76973,-2.17649 1.5871,-3.76305 0.73576,-1.42815 0.69427,-2.37329 -0.47817,-10.8851 l -1.28392,-9.32115 -1.60356,-1.44815 c -0.88196,-0.79648 -1.66204,-1.87268 -1.73351,-2.39157 -0.0715,-0.51887 -0.73668,-1.3861 -1.47828,-1.92716 -0.7416,-0.54106 -1.5811,-1.58937 -1.86559,-2.32958 -0.28455,-0.7402 -1.03992,-1.74191 -1.67864,-2.22601 -0.68389,-0.51826 -1.50137,-1.98609 -1.98819,-3.56992 -0.50899,-1.65569 -1.38155,-3.19063 -2.26973,-3.99258 -0.79359,-0.71653 -1.65044,-1.73882 -1.90409,-2.27175 -0.25363,-0.53292 -1.40082,-1.29594 -2.54939,-1.69558 -2.72523,-0.9483 -3.29465,-1.82399 -3.86136,-5.93829 -0.36496,-2.64958 -0.26991,-3.96606 0.42234,-5.84902 0.49136,-1.33642 0.89736,-3.57324 0.90226,-4.97071 0.005,-1.39747 0.39191,-3.51266 0.86,-4.70042 0.46813,-1.18775 0.8654,-3.0253 0.88283,-4.08343 0.0175,-1.05815 0.45217,-2.72636 0.96617,-3.70715 0.89885,-1.71529 0.88026,-2.25244 -0.48881,-14.0964 -1.30624,-11.30062 -1.3583,-12.49004 -0.63323,-14.46429 0.43451,-1.18313 0.76298,-3.24543 0.72994,-4.58291 -0.033,-1.33748 0.31057,-3.06493 0.76362,-3.83879 0.45306,-0.77385 0.97602,-2.27524 1.16214,-3.33639 0.18612,-1.06116 0.60755,-2.34036 0.93641,-2.84264 0.32887,-0.50228 0.96927,-1.8973 1.42313,-3.10005 2.45377,-6.50306 2.98664,-7.79652 4.10193,-9.95623 0.67001,-1.29747 1.88579,-3.70295 2.70169,-5.34548 1.47071,-2.96065 3.23898,-5.43323 6.29881,-8.80769 0.87293,-0.96269 2.00429,-2.32478 2.51416,-3.02685 0.50987,-0.70207 1.21679,-1.3164 1.571,-1.36519 0.35416,-0.0488 1.23997,-0.85687 1.96847,-1.79574 0.72845,-0.93886 1.91935,-1.9421 2.64636,-2.2294 0.72701,-0.2873 1.80135,-1.01212 2.3874,-1.61071 0.58605,-0.59858 1.96135,-1.45632 3.05623,-1.90609 1.09486,-0.44976 2.56113,-1.35837 3.2584,-2.01912 0.69728,-0.66075 2.08515,-1.42715 3.08418,-1.7031 3.23849,-0.89454 3.81376,-1.17704 4.88374,-2.39832 0.99274,-1.13307 1.53443,-1.25778 9.37041,-2.15698 5.88761,-0.67563 9.15481,-0.81981 11.18584,-0.49363 2.77689,0.44597 2.90829,0.42245 4.09074,-0.73224 1.04645,-1.02189 2.00126,-1.30039 6.65643,-1.9416 4.97926,-0.68585 5.58824,-0.66499 7.26603,0.24886 1.00721,0.54861 2.48349,1.04932 3.28065,1.11268 0.79717,0.0634 1.77526,0.41347 2.17354,0.77801 0.39827,0.36455 1.55309,0.88234 2.56623,1.15066 1.01314,0.26833 2.4808,0.97193 3.26149,1.56357 0.78063,0.59166 1.82628,1.01968 2.32365,0.95117 0.4973,-0.0685 1.08591,0.0954 1.30791,0.36415 0.22206,0.26878 1.33841,0.98728 2.48078,1.59666 2.70785,1.44443 9.34293,7.22182 10.70172,9.31832 1.84813,2.85154 4.31597,5.76364 5.34954,6.31256 0.54862,0.29139 1.03991,0.83793 1.0918,1.21454 0.0518,0.37662 0.77612,1.30033 1.60938,2.05272 1.08963,0.98379 1.74612,2.23064 2.33779,4.44002 0.45249,1.68963 1.4316,4.02211 2.1758,5.18329 1.11112,1.73364 1.60627,3.52023 2.76852,9.98946 1.26722,7.05379 1.53617,7.96325 2.56974,8.69051 0.91868,0.64638 1.3584,1.72627 2.153,5.28767 0.64674,2.89855 1.44448,5.1035 2.26415,6.25803 0.81658,1.15027 1.61447,3.3499 2.2491,6.20067 0.54098,2.42992 1.5877,5.68589 2.32608,7.23547 1.81463,3.80821 3.68463,16.71157 2.8585,19.72404 -0.29756,1.08503 -0.53031,3.49196 -0.51728,5.34872 0.0131,1.85675 -0.33479,4.23317 -0.77308,5.28093 -0.48462,1.15863 -0.76003,3.4835 -0.70289,5.93374 0.0517,2.21579 0.0818,4.2486 0.0669,4.51734 -0.0974,1.75349 0.80038,3.01398 3.9383,5.52929 2.01261,1.61328 4.29424,2.97707 5.28568,3.15943 0.95949,0.17647 1.76936,0.5015 1.79978,0.72228 0.0304,0.22078 0.82983,0.60335 1.77647,0.85013 1.45718,0.37989 3.57953,1.63622 6.08718,3.60332 2.81447,2.20777 4.41283,3.61078 4.7135,4.13744 0.29008,0.50796 0.4343,0.47783 0.75889,-0.15856 0.30654,-0.60098 0.54774,-0.33404 1.02577,1.13516 0.34379,1.05648 0.97059,2.22319 1.39294,2.59266 0.51005,0.44621 0.64497,0.94191 0.40176,1.47639 -0.64389,1.41519 -0.14865,2.98225 1.00525,3.18085 0.59693,0.10274 1.19079,0.0476 1.31972,-0.12244 0.12888,-0.17008 1.37652,-0.0463 2.77249,0.27498 1.39592,0.32133 4.11268,0.64172 6.03719,0.712 4.15917,0.15187 7.90993,0.59552 10.80569,1.27812 1.16098,0.27367 3.12871,0.36747 4.37272,0.20844 1.41783,-0.18126 3.20924,0.0591 4.80079,0.64428 1.50749,0.55422 3.83344,0.88746 5.72527,0.82027 2.2627,-0.0804 3.64394,0.17146 4.76486,0.86871 1.18571,0.73755 2.19242,0.89734 4.04544,0.6421 1.83718,-0.25306 2.77221,-0.10842 3.66292,0.56659 1.46531,1.11052 3.74613,1.47393 6.73192,1.07261 1.24252,-0.16706 2.76236,-0.0892 3.37737,0.17301 3.78501,1.61345 5.15008,2.40287 5.23618,3.02801 0.0536,0.38867 0.87129,1.32134 1.81723,2.0726 0.94593,0.75124 1.77312,1.75243 1.83819,2.22484 0.0651,0.47242 0.91201,1.61696 1.88208,2.54342 1.24521,1.18928 1.83917,2.23199 2.02027,3.54673 0.17795,1.29188 0.6972,2.22335 1.69537,3.04134 0.82204,0.67364 1.52164,1.78015 1.63197,2.58112 0.10622,0.7711 1.00212,2.30162 1.99093,3.40116 1.04632,1.16348 1.89317,2.6633 2.02595,3.58795 0.13281,0.9234 0.80404,2.11387 1.60331,2.84263 0.75639,0.68961 1.78812,2.11602 2.29277,3.16978 0.50464,1.05376 1.42145,2.65069 2.03734,3.54871 0.6159,0.89804 1.61414,3.28748 2.2183,5.30987 0.60422,2.02239 1.52294,4.16401 2.04172,4.75915 0.57372,0.65821 1.25565,2.66471 1.74089,5.12225 0.43873,2.22209 1.68014,6.25944 2.75872,8.97189 1.40078,3.52265 2.35692,7.0677 3.34658,12.40768 1.23016,6.63787 1.52189,7.58859 2.60221,8.48066 0.6692,0.55259 1.52185,1.9966 1.89476,3.20892 0.37294,1.21231 1.16728,2.6771 1.76529,3.25505 0.598,0.57796 1.34369,1.85381 1.65707,2.83523 0.31343,0.98141 1.19706,2.50215 1.96369,3.37942 0.76656,0.87728 1.69403,2.58761 2.06108,3.80074 0.36699,1.21313 1.17933,2.94498 1.80522,3.84854 0.62584,0.90357 1.60501,3.0663 2.17587,4.80609 0.57085,1.73978 1.78589,4.40245 2.70008,5.91702 1.467,2.43059 1.81965,3.67042 3.00436,10.56364 1.52758,8.88803 2.01568,17.66219 1.09092,19.61047 -0.70746,1.49051 -0.65127,2.87521 0.11232,2.77003 0.28541,-0.0393 1.06348,0.83324 1.72908,1.93903 0.66559,1.10577 1.62139,2.26593 2.12401,2.57813 0.50258,0.31221 0.98658,1.09596 1.07553,1.7417 0.0889,0.64573 0.93348,1.77287 1.87674,2.50476 0.94327,0.73189 1.78734,1.85564 1.87572,2.49723 0.0883,0.64157 0.95436,1.92452 1.92444,2.85099 0.97007,0.92648 1.82309,2.11524 1.89561,2.64167 0.0725,0.52645 0.74343,1.3851 1.49092,1.90812 0.8866,0.62039 1.59961,1.76983 2.05108,3.30672 0.38066,1.29567 1.05467,2.57522 1.49778,2.84345 1.98944,1.2041 2.98494,2.01269 3.0488,2.47631 0.0458,0.33308 -57.22027,8.39222 -170.79676,24.03646 l -170.8658,23.53539 -6.83284,-49.6062 z M 205.011,614.57792 c 0.12242,-0.27665 -0.0596,-0.99829 -0.4045,-1.60367 -0.34495,-0.60537 -0.82515,-1.51391 -1.06719,-2.01897 -0.30466,-0.63572 -0.57834,-0.73584 -0.88942,-0.32537 -0.31107,0.41048 -0.19033,1.2056 0.39221,2.58426 0.81433,1.92648 1.50724,2.40646 1.96875,1.36377 z M 498.5499,817.0152 c -0.92149,-1.73061 -0.64948,-1.78872 25.09311,-5.36164 15.09333,-2.09485 26.2564,-3.4351 27.91329,-3.3513 1.90403,0.0963 2.93445,-0.0498 3.31968,-0.47074 0.30728,-0.33572 1.11608,-0.54937 1.79734,-0.47482 0.86812,0.0951 1.47341,-0.20851 2.02347,-1.01476 0.65548,-0.96082 0.66318,-1.57652 0.0472,-3.73709 -0.40579,-1.4227 -1.16974,-4.64837 -1.6976,-7.16813 -0.81586,-3.89399 -1.13432,-4.67082 -2.12244,-5.17746 -0.95964,-0.49202 -1.29614,-1.25185 -1.92788,-4.353 -0.62499,-3.06809 -1.01498,-3.95863 -2.12654,-4.85704 -1.20475,-0.97369 -1.47819,-1.71492 -2.37936,-6.44989 -0.86165,-4.52745 -1.21983,-5.54436 -2.33023,-6.61549 -1.11809,-1.07849 -1.397,-1.88201 -1.88621,-5.43364 -0.87078,-6.32178 -1.83075,-7.25168 -7.25431,-7.02695 -1.59199,0.0659 -2.91301,-0.23234 -3.79204,-0.85632 -0.98836,-0.70158 -2.25679,-0.92692 -4.74502,-0.84292 -2.43211,0.0821 -3.62464,-0.12188 -4.20141,-0.71879 -0.52806,-0.54651 -1.81429,-0.83141 -3.73609,-0.82757 -3.38793,0.007 -4.08857,-0.52309 -5.00352,-3.78385 -0.72729,-2.59193 -0.6116,-13.09401 0.18597,-16.8872 0.26718,-1.27067 0.40888,-3.93244 0.31485,-5.91504 -0.11428,-2.40991 0.10445,-4.14143 0.66013,-5.22398 0.65967,-1.28544 0.74447,-2.72713 0.41106,-6.99324 -0.35152,-4.49848 -0.2745,-5.56589 0.47277,-6.55196 0.69924,-0.92262 0.84183,-2.12447 0.65776,-5.54438 -0.17043,-3.16666 -0.0122,-4.74718 0.57623,-5.75219 0.51097,-0.87277 0.82693,-2.96553 0.85356,-5.65311 0.0285,-2.89467 0.33259,-4.76322 0.94477,-5.80893 0.71048,-1.21357 0.81016,-2.21206 0.46849,-4.69254 -0.35412,-2.57093 -0.25326,-3.44153 0.54785,-4.72946 0.68944,-1.10834 0.94909,-2.49973 0.87178,-4.6712 -0.0704,-1.97715 0.29447,-4.21007 1.01149,-6.19048 0.61687,-1.70379 1.06865,-3.48207 1.00396,-3.95172 -0.0647,-0.46966 0.34085,-1.69562 0.90119,-2.72438 0.56035,-1.02874 0.967,-2.24661 0.90367,-2.70635 -0.0633,-0.45974 0.44406,-1.78027 1.12754,-2.93451 0.68346,-1.15424 1.21873,-2.2724 1.18948,-2.4848 -0.11437,-0.83028 3.82457,-5.58961 5.02668,-6.07364 0.70009,-0.28188 1.5433,-1.08225 1.87382,-1.7786 0.33052,-0.69635 1.0759,-1.40264 1.65636,-1.56953 0.58051,-0.1669 1.22447,-0.78626 1.43104,-1.37636 0.61785,-1.76491 3.58391,-5.34415 4.5375,-5.4755 0.48845,-0.0672 1.57448,-0.79127 2.41344,-1.60888 0.83894,-0.8176 2.12983,-1.56982 2.86862,-1.67157 2.385,-0.32852 4.29892,-1.19198 5.26253,-2.37421 0.60282,-0.7395 1.98806,-1.42691 3.85107,-1.91106 2.0047,-0.52096 3.23548,-1.1593 3.95733,-2.05244 0.68777,-0.85101 2.00238,-1.56233 3.82691,-2.07074 1.94274,-0.54135 2.95127,-1.1097 3.35082,-1.88829 0.38083,-0.74201 1.3226,-1.3049 2.8211,-1.68612 1.23718,-0.31475 3.01181,-1.25441 3.94367,-2.08814 0.93186,-0.83373 2.57479,-1.79556 3.65101,-2.1374 1.07617,-0.34183 2.35158,-1.09079 2.8342,-1.66436 0.48266,-0.57357 2.09475,-1.57886 3.58251,-2.23398 1.48774,-0.65513 2.93268,-1.55771 3.21096,-2.00574 0.27829,-0.44804 1.29699,-1.19412 2.2637,-1.65796 0.96672,-0.46384 2.09067,-1.22555 2.49762,-1.69266 0.40701,-0.46712 1.66295,-1.19449 2.79098,-1.61637 1.12807,-0.4219 2.63392,-1.41275 3.34644,-2.20192 0.71258,-0.78917 1.58573,-1.47482 1.94039,-1.52368 1.96399,-0.27051 3.49306,-4.737 2.10968,-6.16224 -0.24048,-0.2477 -2.35376,-0.18638 -4.69631,0.13629 -3.49101,0.48085 -4.69491,0.43097 -6.67562,-0.27657 -3.41442,-1.21971 -4.8485,-2.35714 -5.7949,-4.59607 -0.45295,-1.07152 -1.42102,-2.48774 -2.15135,-3.14716 -0.73038,-0.65942 -1.62337,-2.20459 -1.98447,-3.4337 -0.36104,-1.22913 -0.9724,-2.36744 -1.35845,-2.5296 -1.00827,-0.4235 -2.12467,-2.1281 -2.31931,-3.54129 -0.0922,-0.66864 -0.80142,-1.91966 -1.5762,-2.78006 -0.97533,-1.08296 -1.65271,-2.60605 -2.20134,-4.94942 -0.4483,-1.91451 -1.37255,-4.20193 -2.12754,-5.26544 -1.57973,-2.22519 -2.77904,-5.68322 -4.06528,-11.72204 -0.75608,-3.54965 -1.13613,-4.49499 -1.94473,-4.83793 -2.54631,-1.07981 -3.56969,-1.97845 -4.11601,-3.61405 -0.79041,-2.36674 0.17227,-3.81077 2.77983,-4.16995 2.17774,-0.29996 3.29627,-1.96649 2.07194,-3.08707 -1.08844,-0.99623 -6.50662,0.17147 -7.3642,1.58712 -0.60218,0.99389 -0.97105,1.11917 -2.89097,0.98176 -2.75484,-0.19716 -3.77312,-1.31617 -4.72625,-5.19365 -1.06737,-4.34246 -0.55272,-6.42024 1.94189,-7.84028 1.09343,-0.62242 2.11838,-1.41597 2.27765,-1.76344 0.15931,-0.34747 -0.39696,-5.64158 -1.23606,-11.76469 -1.15672,-8.44205 -1.41003,-11.55412 -1.04721,-12.87554 0.2632,-0.95843 0.67356,-3.26292 0.91207,-5.1211 0.23846,-1.85817 0.8606,-4.1687 1.38246,-5.1345 0.52187,-0.96581 0.91543,-1.9986 0.87459,-2.29508 -0.0409,-0.29649 0.50469,-1.34008 1.21233,-2.3191 0.7076,-0.97901 1.24836,-2.05721 1.2017,-2.39597 -0.0467,-0.33877 0.2419,-0.9729 0.64119,-1.4092 0.39936,-0.43628 1.11786,-1.65475 1.59668,-2.70769 1.57934,-3.47291 11.07418,-15.64965 12.90084,-16.5448 0.92969,-0.45558 2.01997,-1.3116 2.42299,-1.90225 0.40292,-0.59065 1.37115,-1.30923 2.15163,-1.59686 0.78039,-0.28761 1.99987,-1.16631 2.70984,-1.95266 1.73078,-1.91696 7.51634,-3.24076 24.02539,-5.4973 13.1616,-1.79896 15.19616,-1.87986 20.31192,-0.80735 1.73505,0.36373 4.60598,0.77012 6.37989,0.90308 1.93367,0.14491 3.91392,0.67596 4.94472,1.32599 0.94565,0.59635 2.06412,1.03677 2.48547,0.97874 0.42136,-0.058 1.51365,0.3659 2.42737,0.94209 1.06584,0.67217 2.27764,0.96272 3.3811,0.81073 1.2235,-0.16852 2.22846,0.13068 3.48188,1.03661 0.96908,0.70044 2.20525,1.3498 2.74702,1.44305 0.54179,0.0932 1.01439,0.38268 1.05028,0.64318 0.0361,0.2605 2.89117,2.60126 6.34517,5.20171 8.3516,6.28783 10.86637,8.54987 11.05889,9.9475 0.0927,0.67324 0.70826,1.42464 1.45906,1.78096 0.71423,0.33902 1.53159,1.19497 1.8163,1.90208 0.28473,0.70713 1.10765,1.88948 1.82873,2.62747 1.07766,1.10298 1.48702,2.24449 2.30007,6.41415 0.65232,3.34558 1.36784,5.62275 2.10176,6.68912 2.2649,3.29083 4.65481,12.39345 4.87347,18.56213 0.23585,6.65348 0.0507,11.51649 -0.49724,13.06383 -0.28697,0.81033 -0.61035,2.66163 -0.71858,4.11399 -0.10819,1.45237 -0.48132,2.79735 -0.82917,2.98885 -0.90718,0.49948 -1.33405,3.18569 -0.94963,5.97626 0.25848,1.87673 0.0947,2.7427 -0.74555,3.94371 -0.59229,0.8464 -1.13114,2.13871 -1.19744,2.87179 -0.0663,0.73307 -0.36391,1.59612 -0.66128,1.9179 -0.94452,1.02213 -1.41247,2.87999 -1.16953,4.64361 0.14533,1.0552 -0.0903,2.09691 -0.6157,2.72288 -0.46814,0.55762 -1.04164,1.99336 -1.27451,3.19052 -0.9483,4.87538 -4.46184,10.20573 -7.45408,11.30845 -0.77891,0.28705 -1.64469,0.88978 -1.92395,1.33941 -0.75362,1.21315 0.92543,8.43044 2.46606,10.60055 0.67303,0.94803 1.51965,3.10696 1.88132,4.79765 0.52607,2.45891 0.95907,3.31274 2.16424,4.26739 0.82863,0.65638 1.56843,1.64267 1.6441,2.19174 0.0756,0.54906 1.09416,1.68838 2.2634,2.5318 1.62578,1.17276 2.70657,1.52791 4.5942,1.50971 1.35755,-0.0131 3.59351,0.37342 4.96877,0.85891 1.37532,0.4855 3.34166,1.15096 4.36969,1.47882 3.62554,1.15623 5.65557,2.02872 7.20026,3.09463 0.85873,0.59257 1.86272,1.03586 2.23111,0.98512 0.36834,-0.0507 1.31601,0.35993 2.10588,0.9126 0.79821,0.55852 2.42627,1.02356 3.66516,1.04695 1.33998,0.0253 2.60224,0.41119 3.16461,0.96742 0.64053,0.63346 1.72402,0.90009 3.43523,0.84534 1.63461,-0.0523 2.98829,0.26035 3.91156,0.90344 0.77653,0.54089 2.11064,1.05196 2.96463,1.13572 0.85398,0.0838 2.21463,0.49098 3.02368,0.90492 0.809,0.41396 2.59028,0.83561 3.9584,0.93701 5.40201,0.4004 6.14464,0.4948 7.31116,0.92938 0.66491,0.24774 2.52713,0.511 4.13814,0.58502 3.84068,0.17647 6.9755,1.90797 10.94552,6.04567 0.98367,1.02522 3.98358,3.62175 6.66643,5.77008 6.6973,5.36285 8.07483,6.72775 8.27789,8.20186 0.0963,0.6989 0.831,1.86302 1.63275,2.58691 0.94173,0.85025 1.54251,1.93137 1.69712,3.05398 0.15939,1.15693 0.80048,2.2737 1.91816,3.34111 1.15199,1.10021 1.88819,2.40753 2.34619,4.16607 0.39773,1.52731 1.12373,2.93208 1.79681,3.47687 0.62117,0.50278 1.32574,1.51515 1.56565,2.24971 0.67741,2.0738 0.90404,2.17052 4.20014,1.79219 3.02062,-0.3467 3.15572,-0.30474 5.74577,1.78437 4.90182,3.9538 5.83618,4.86568 5.96833,5.82515 0.0724,0.52527 0.78887,1.54852 1.59223,2.27389 0.8034,0.72536 1.71124,2.05396 2.01741,2.95241 0.30618,0.89846 1.17331,2.1981 1.92693,2.88809 0.78274,0.71663 1.46134,1.91555 1.58261,2.79622 0.1168,0.84792 0.90928,2.61667 1.76107,3.93054 0.85169,1.31387 1.84696,3.38168 2.21165,4.59514 0.36469,1.21344 1.30104,2.92256 2.08081,3.79801 0.77974,0.87547 1.84256,2.68203 2.36175,4.01462 0.51924,1.33257 1.46458,3.15532 2.10083,4.05055 0.63625,0.89523 1.52103,2.52724 1.96616,3.62669 0.44517,1.09945 1.18448,2.23199 1.6429,2.51676 0.45844,0.28477 0.87171,0.7948 0.91832,1.13339 0.0467,0.33859 0.79455,1.59817 1.66201,2.79905 0.86746,1.20088 1.62213,2.50971 1.67706,2.90851 0.19724,1.43183 1.1801,0.49573 5.67365,-5.40372 2.64932,-3.47818 4.96964,-6.04561 5.53398,-6.12335 0.89206,-0.12287 1.02453,0.24863 1.61369,4.52612 0.41449,3.00907 0.45435,4.90737 0.11262,5.35831 -0.41762,0.55106 -0.37124,0.8878 0.21994,1.59664 0.57207,0.68593 1.8589,8.95474 5.44338,34.97803 l 4.69421,34.07974 -170.81215,23.528 c -136.19285,18.75947 -170.87634,23.4075 -171.12878,22.93339 z m 328.85098,-97.30191 c -0.78465,-1.6876 -1.85315,-4.31298 -2.37448,-5.83418 -0.92593,-2.70181 -2.22502,-4.24379 -2.69012,-3.19297 -0.46989,1.06157 1.10094,5.16929 2.43862,6.37706 0.82833,0.74788 1.45986,1.8868 1.59658,2.87928 0.19647,1.42634 1.85867,3.62741 2.29982,3.04536 0.0859,-0.1134 -0.48576,-1.58695 -1.27042,-3.27455 z m -315.20709,4.85132 c 0.004,-0.4927 0.27857,-1.02948 0.60938,-1.19282 0.36692,-0.18116 0.58193,0.0606 0.55135,0.61995 -0.0655,1.199 -1.17113,1.74466 -1.16073,0.57287 z"
       id="path6094"
       inkscape:connector-curvature="0" />
    <rect
       style="fill:url(#radialGradient5827);fill-opacity:1;stroke:#525252;stroke-width:30.0000013;stroke-linejoin:bevel;stroke-miterlimit:4;stroke-opacity:1;stroke-dasharray:none"
       id="rect3850"
       width="713.90619"
       height="559.51959"
       x="30.836977"
       y="329.80042"
       ry="143.87648"
       rx="0"
       transform="matrix(0.99115427,-0.13271477,0.132293,0.99121066,0,0)" />
    <text
       xml:space="preserve"
       style="font-size:60.70737457px;font-style:normal;font-variant:normal;font-weight:bold;font-stretch:normal;text-align:end;line-height:125%;letter-spacing:0px;word-spacing:0px;writing-mode:lr-tb;text-anchor:end;opacity:0.95999995;fill:#525252;fill-opacity:1;stroke:none;font-family:Titillium Web;-inkscape-font-specification:Titillium Web Bold"
       x="1441.7711"
       y="-92.215897"
       id="text3899-1-28"
       sodipodi:linespacing="125%"
       transform="matrix(0.99853809,-0.00287413,0.00182069,1.0014588,0,0)"><tspan
         sodipodi:role="line"
         x="1441.7711"
         y="-92.215897"
         id="tspan3903-6-4"
         style="font-size:60.70737457px;font-style:normal;font-variant:normal;font-weight:bold;font-stretch:normal;text-align:end;line-height:125%;writing-mode:lr-tb;text-anchor:end;fill:#525252;fill-opacity:1;stroke:none;font-family:Titillium Web;-inkscape-font-specification:Titillium Web Bold">DISTRIBUTIONEN</tspan><tspan
         sodipodi:role="line"
         x="1441.771"
         y="-16.331675"
         style="font-size:60.70737457px;font-style:normal;font-variant:normal;font-weight:bold;font-stretch:normal;text-align:end;line-height:125%;writing-mode:lr-tb;text-anchor:end;fill:#525252;fill-opacity:1;stroke:none;font-family:Titillium Web;-inkscape-font-specification:Titillium Web Bold"
         id="tspan5864">DESKTOP &amp; ANDROID GNUTIFUL APPLICATIONS</tspan><tspan
         sodipodi:role="line"
         x="1441.7711"
         y="59.552544"
         style="font-size:60.70737457px;font-style:normal;font-variant:normal;font-weight:bold;font-stretch:normal;text-align:end;line-height:125%;writing-mode:lr-tb;text-anchor:end;fill:#525252;fill-opacity:1;stroke:none;font-family:Titillium Web;-inkscape-font-specification:Titillium Web Bold"
         id="tspan5866">GNUWS</tspan><tspan
         sodipodi:role="line"
         x="1441.7711"
         y="135.43677"
         style="font-size:60.70737457px;font-style:normal;font-variant:normal;font-weight:bold;font-stretch:normal;text-align:end;line-height:125%;writing-mode:lr-tb;text-anchor:end;fill:#525252;fill-opacity:1;stroke:none;font-family:Titillium Web;-inkscape-font-specification:Titillium Web Bold"
         id="tspan5868">TESTS</tspan><tspan
         sodipodi:role="line"
         x="1441.7711"
         y="211.32098"
         style="font-size:60.70737457px;font-style:normal;font-variant:normal;font-weight:bold;font-stretch:normal;text-align:end;line-height:125%;writing-mode:lr-tb;text-anchor:end;fill:#525252;fill-opacity:1;stroke:none;font-family:Titillium Web;-inkscape-font-specification:Titillium Web Bold"
         id="tspan5878">HOWTOS</tspan><tspan
         sodipodi:role="line"
         x="1441.7711"
         y="287.2052"
         style="font-size:60.70737457px;font-style:normal;font-variant:normal;font-weight:bold;font-stretch:normal;text-align:end;line-height:125%;writing-mode:lr-tb;text-anchor:end;fill:#525252;fill-opacity:1;stroke:none;font-family:Titillium Web;-inkscape-font-specification:Titillium Web Bold"
         id="tspan6152" /><tspan
         sodipodi:role="line"
         x="1441.7711"
         y="363.08942"
         style="font-size:60.70737457px;font-style:normal;font-variant:normal;font-weight:bold;font-stretch:normal;text-align:end;line-height:125%;writing-mode:lr-tb;text-anchor:end;fill:#525252;fill-opacity:1;stroke:none;font-family:Titillium Web;-inkscape-font-specification:Titillium Web Bold"
         id="tspan5874">&amp; so viel mehr!</tspan></text>
    <rect
       style="fill:#103d4a;fill-opacity:1;stroke:none"
       id="rect3078-4-7-6-9"
       width="1532.8571"
       height="253.14282"
       x="124.702"
       y="1117.7814"
       transform="matrix(0.99276048,-0.1201109,0.1201109,0.99276048,0,0)" />
    <rect
       style="fill:#525252;fill-opacity:1;stroke:none"
       id="rect3078-4-7-6-9-9"
       width="1532.8571"
       height="253.14282"
       x="458.0347"
       y="1150.4423"
       transform="matrix(0.99276048,-0.1201109,0.1201109,0.99276048,0,0)" />
    <text
       xml:space="preserve"
       style="font-size:67.68814086999999802px;font-style:normal;font-variant:normal;font-weight:bold;font-stretch:normal;text-align:end;line-height:125%;letter-spacing:0px;word-spacing:0px;writing-mode:lr-tb;text-anchor:end;fill:#ffffff;fill-opacity:1;stroke:#000000;stroke-width:2;stroke-miterlimit:4;stroke-opacity:1;stroke-dasharray:none;font-family:Titillium Web;-inkscape-font-specification:Titillium Web Bold"
       x="1323.6001"
       y="1026.3438"
       id="text3899-1-28-3"
       sodipodi:linespacing="125%"
       transform="matrix(0.99167353,-0.11691963,0.11620672,0.99469546,0,0)"><tspan
         sodipodi:role="line"
         x="1323.6001"
         y="1026.3438"
         style="font-size:67.68814086999999802px;font-style:normal;font-variant:normal;font-weight:bold;font-stretch:normal;text-align:end;line-height:125%;writing-mode:lr-tb;text-anchor:end;fill:#ffffff;fill-opacity:1;stroke:#000000;stroke-width:2;stroke-miterlimit:4;stroke-opacity:1;stroke-dasharray:none;font-family:Titillium Web;-inkscape-font-specification:Titillium Web Bold"
         id="tspan5874-5">youtube.com/gnufunzt</tspan><tspan
         sodipodi:role="line"
         x="1323.6001"
         y="1110.954"
         style="font-size:67.68814086999999802px;font-style:normal;font-variant:normal;font-weight:bold;font-stretch:normal;text-align:end;line-height:125%;writing-mode:lr-tb;text-anchor:end;fill:#ffffff;fill-opacity:1;stroke:#000000;stroke-width:2;stroke-miterlimit:4;stroke-opacity:1;stroke-dasharray:none;font-family:Titillium Web;-inkscape-font-specification:Titillium Web Bold"
         id="tspan5940">gnufunzt.de</tspan></text>
    <text
       xml:space="preserve"
       style="font-size:72.44039153999999314px;font-style:normal;font-variant:normal;font-weight:bold;font-stretch:normal;text-align:center;line-height:125%;letter-spacing:0px;word-spacing:0px;writing-mode:lr-tb;text-anchor:middle;fill:#bf8dc5;fill-opacity:1;stroke:#662d60;stroke-width:3.00000001;stroke-miterlimit:4;stroke-opacity:1;stroke-dasharray:none;font-family:Titillium Web;-inkscape-font-specification:Titillium Web Bold"
       x="387.09491"
       y="282.33414"
       id="text3899-1-6"
       sodipodi:linespacing="125%"
       transform="matrix(0.98957643,-0.13351058,0.13284838,0.99260987,0,0)"><tspan
         sodipodi:role="line"
         x="387.09491"
         y="282.33414"
         id="tspan3903-6-45"
         style="font-size:72.44039153999999314px;font-style:normal;font-variant:normal;font-weight:bold;font-stretch:normal;text-align:center;line-height:125%;writing-mode:lr-tb;text-anchor:middle;fill:#bf8dc5;fill-opacity:1;stroke:#662d60;stroke-width:3.00000001;stroke-miterlimit:4;stroke-opacity:1;stroke-dasharray:none;font-family:Titillium Web;-inkscape-font-specification:Titillium Web Bold"><tspan
   style="fill:#662d60;fill-opacity:1;stroke:none;stroke-width:3.00000001;stroke-miterlimit:4;stroke-dasharray:none"
   id="tspan6439">mit</tspan> Erik<tspan
   style="stroke:none;fill:#662d60;fill-opacity:1;stroke-width:3.00000001;stroke-miterlimit:4;stroke-dasharray:none"
   id="tspan6447">,</tspan> Paul <tspan
   style="stroke:none;fill:#662d60;fill-opacity:1;stroke-width:3.00000001;stroke-miterlimit:4;stroke-dasharray:none"
   id="tspan6443">&amp;</tspan> André</tspan></text>
    <text
       xml:space="preserve"
       style="font-size:173.88122559px;font-style:normal;font-weight:normal;line-height:125%;letter-spacing:0px;word-spacing:0px;opacity:0.34796238;fill:#525252;fill-opacity:1;stroke:#000000;stroke-width:4;stroke-miterlimit:4;stroke-opacity:1;stroke-dasharray:none;font-family:Sans"
       x="322.56134"
       y="649.69659"
       id="text6096"
       sodipodi:linespacing="125%"
       transform="matrix(0.99063004,-0.13657277,0.13657277,0.99063004,0,0)"
       inkscape:transform-center-x="-32.301075"
       inkscape:transform-center-y="-45.2661"><tspan
         sodipodi:role="line"
         id="tspan6098"
         x="322.56134"
         y="649.69659"
         style="stroke-width:4">▶</tspan></text>
    <text
       xml:space="preserve"
       style="font-size:39.07707214px;font-style:normal;font-variant:normal;font-weight:bold;font-stretch:normal;text-align:end;line-height:125%;letter-spacing:0px;word-spacing:0px;writing-mode:lr-tb;text-anchor:end;fill:#ffffff;fill-opacity:1;stroke:none;font-family:Titillium Web;-inkscape-font-specification:Titillium Web Bold"
       x="1440.1315"
       y="-972.06366"
       id="text3899-1-4"
       sodipodi:linespacing="125%"
       transform="matrix(0.99854199,-6.9313674e-4,-3.6668841e-4,1.0014604,0,0)"><tspan
         sodipodi:role="line"
         x="1448.7559"
         y="-972.06366"
         style="font-size:39.07707214px;font-style:normal;font-variant:normal;font-weight:bold;font-stretch:normal;text-align:end;line-height:125%;writing-mode:lr-tb;text-anchor:end;fill:#525252;fill-opacity:1;stroke:none;font-family:Titillium Web;-inkscape-font-specification:Titillium Web Bold"
         id="tspan6138">Diese Sendung </tspan><tspan
         sodipodi:role="line"
         x="1448.7559"
         y="-923.21735"
         style="font-size:39.07707214px;font-style:normal;font-variant:normal;font-weight:bold;font-stretch:normal;text-align:end;line-height:125%;writing-mode:lr-tb;text-anchor:end;fill:#525252;fill-opacity:1;stroke:none;font-family:Titillium Web;-inkscape-font-specification:Titillium Web Bold"
         id="tspan6148">wird ermöglicht </tspan><tspan
         sodipodi:role="line"
         x="1448.7559"
         y="-874.37097"
         style="font-size:39.07707214px;font-style:normal;font-variant:normal;font-weight:bold;font-stretch:normal;text-align:end;line-height:125%;writing-mode:lr-tb;text-anchor:end;fill:#525252;fill-opacity:1;stroke:none;font-family:Titillium Web;-inkscape-font-specification:Titillium Web Bold"
         id="tspan6150">durch </tspan><tspan
         sodipodi:role="line"
         x="1440.1315"
         y="-825.52466"
         style="font-size:39.07707214px;font-style:normal;font-variant:normal;font-weight:bold;font-stretch:normal;text-align:end;line-height:125%;writing-mode:lr-tb;text-anchor:end;fill:#525252;fill-opacity:1;stroke:none;font-family:Titillium Web;-inkscape-font-specification:Titillium Web Bold"
         id="tspan6146">GNU-Software</tspan></text>
  </g>
</svg>
